<svg xmlns="http://www.w3.org/2000/svg" viewBox="0 0 24 24" id="googlemailnew"><g data-name="Layer 2" fill="#000000" class="color000000 svgShape"><g data-name="Layer 3" fill="#000000" class="color000000 svgShape"><path fill="none" d="M0 0h24v24H0z"></path><path fill="#ffffff" d="M1 12C1 4 4 1 12 1s11 3 11 11-3 11-11 11S1 20 1 12" class="colorffffff svgShape"></path><path fill="#34a853" d="m20.16 9-3.89 2.86v6.24H19a1.15 1.15 0 0 0 1.16-1.1Z" class="color4caf50 svgShape"></path><path fill="#4285f4" d="m3.84 9 3.88 2.88v6.23H5A1.15 1.15 0 0 1 3.84 17Z" class="color1e88e5 svgShape"></path><path fill="#ea4335" d="M16.27 7.1 12 10.25 7.73 7.1v4.77L12 15.02l4.27-3.15V7.1z" class="colore53935 svgShape"></path><path fill="#c63428" d="M3.84 7.52V9l3.88 2.88V7.1l-1.21-.89a1.67 1.67 0 0 0-1-.33 1.65 1.65 0 0 0-1.67 1.64Z" class="colorc62828 svgShape"></path><path fill="#fbbc05" d="M20.16 7.52V9l-3.89 2.86V7.1l1.22-.89a1.67 1.67 0 0 1 1-.33 1.65 1.65 0 0 1 1.67 1.64Z" class="colorfbc02d svgShape"></path></g></g></svg>